PathFileType	4	(X/Y/Z)	D:\datacapture\jf2lin\2017-09-14 IITTimeSync\timesync1.trc
DataRate	CameraRate	NumFrames	NumMarkers	Units	OrigDataRate	OrigDataStartFrame	OrigNumFrames
100.00	100.00	      148	3	mm	100.00	406	      3241
Frame#	Time	M1			M2			M3			
		X1	Y1	Z1	X2	Y2	Z2	X3	Y3	Z3	

406	4.050										
407	4.060										
408	4.070										
409	4.080										
410	4.090										
411	4.100										
412	4.110										
413	4.120										
414	4.130										
415	4.140										
416	4.150										
417	4.160										
418	4.170										
419	4.180										
420	4.190										
421	4.200										
422	4.210										
423	4.220										
424	4.230										
425	4.240										
426	4.250										
427	4.260										
428	4.270										
429	4.280										
430	4.290										
431	4.300										
432	4.310										
433	4.320										
434	4.330										
435	4.340										
436	4.350										
437	4.360										
438	4.370										
439	4.380										
440	4.390										
441	4.400										
442	4.410										
443	4.420										
444	4.430										
445	4.440										
446	4.450										
447	4.460										
448	4.470										
449	4.480										
450	4.490										
451	4.500										
452	4.510										
453	4.520										
454	4.530										
455	4.540										
456	4.550										
457	4.560										
458	4.570										
459	4.580										
460	4.590										
461	4.600										
462	4.610										
463	4.620										
464	4.630										
465	4.640										
466	4.650										
467	4.660										
468	4.670										
469	4.680										
470	4.690										
471	4.700										
472	4.710										
473	4.720										
474	4.730										
475	4.740										
476	4.750										
477	4.760										
478	4.770										
479	4.780	189.74062	1263.29529	1369.82849	196.33212	1288.66052	1323.69824	214.93811	1354.60181	1197.51843	
480	4.790	186.83330	1258.62256	1360.54529	193.79172	1285.16223	1314.51074	214.34705	1353.08789	1187.07422	
481	4.800	181.73483	1255.64807	1350.14063	192.39624	1281.52307	1304.07300	214.06577	1351.72559	1178.06445	
482	4.810										
483	4.820										
484	4.830										
485	4.840										
486	4.850										
487	4.860										
488	4.870										
489	4.880										
490	4.890										
491	4.900										
492	4.910										
493	4.920										
494	4.930										
495	4.940	156.41570	1235.14014	1231.33765	173.28104	1264.29614	1189.97400	245.16818	1315.30164	1071.54517	
496	4.950	154.74409	1234.62573	1227.84814				245.79970	1314.93384	1067.21887	
497	4.960	153.50847	1234.17419	1222.75635	171.48221	1263.34985	1181.57336	246.18776	1314.57581	1063.09302	
498	4.970	153.21660	1233.68347	1217.74390	171.21072	1262.71448	1177.18030	246.29155	1314.07678	1058.99060	
499	4.980	152.16373	1233.59448	1213.33398	170.84323	1262.26050	1172.13562	246.57716	1313.76038	1055.05701	
500	4.990	151.23187	1233.10571	1209.04431	170.58098	1261.93005	1168.63879	247.04208	1313.27417	1051.41296	
501	5.000	150.91724	1232.55859	1204.38599	170.26413	1261.58435	1164.02734	247.24591	1313.21094	1048.11987	
502	5.010	150.22453	1232.25562	1201.03638	170.09810	1261.24817	1160.81934	247.67245	1313.11987	1045.02124	
503	5.020	149.58597	1231.79712	1198.09631	169.93251	1260.97693	1157.73083	248.14462	1313.15247	1042.06812	
504	5.030	149.05118	1231.97754	1195.00354	169.73366	1260.69458	1154.70300	248.37515	1313.08057	1039.31921	
505	5.040	149.31923	1231.94519	1191.63635	169.68579	1260.58252	1151.90247	248.98479	1313.16357	1036.58777	
506	5.050	149.28757	1231.82617	1188.87561	169.08440	1261.28345	1149.14368	249.57843	1313.00293	1034.14380	
507	5.060	149.30838	1231.79749	1186.48096	169.73911	1261.19690	1146.60571	250.12474	1313.41052	1031.95911	
508	5.070	149.58087	1232.14587	1183.75659	169.75015	1261.60413	1144.03894	250.34514	1314.02893	1030.01892	
509	5.080	149.65784	1232.30945	1181.69592	169.92337	1262.17810	1141.67249				
510	5.090	150.26736	1232.76514	1179.46692	170.07384	1262.49072	1139.40369	250.78119	1315.61108	1026.36816	
511	5.100	150.33665	1233.44629	1177.28638	170.22173	1263.24133	1138.53931	250.64101	1316.23499	1024.69116	
512	5.110	149.74431	1234.56042	1176.37634	170.14833	1263.99548	1136.42078	251.14513	1317.20325	1023.25879	
513	5.120	149.92722	1235.57288	1174.74341	170.23763	1264.65027	1135.84229	251.60535	1317.84766	1021.97601	
514	5.130	149.79590	1235.99158	1174.05994	170.40321	1265.77600	1134.00427	252.13809	1318.35095	1020.91199	
515	5.140	149.38017	1237.20825	1173.05127	170.25162	1266.46912	1133.39929	252.73492	1318.90515	1020.04138	
516	5.150	149.02290	1238.32043	1172.66150	170.30121	1267.63440	1133.05127	253.17487	1319.38794	1019.22845	
517	5.160	148.46349	1239.72473	1172.00330	170.13518	1268.08752	1132.77759	253.82726	1319.89600	1018.86188	
518	5.170	147.90086	1241.09131	1172.07422	169.99522	1269.47607	1132.71521	254.46130	1320.52136	1018.85779	
519	5.180	147.67619	1242.71558	1172.37268	169.89171	1270.76257	1133.04199	254.89278	1320.86987	1019.12311	
520	5.190	146.37544	1244.53540	1173.93237	169.42917	1272.03162	1133.97485	255.08910	1321.15381	1020.04218	
521	5.200	146.15887	1246.27893	1176.15601	167.87251	1274.36218	1134.51465	255.28790	1321.54761	1021.29083	
522	5.210	145.38817	1248.68848	1178.12903	167.43214	1276.03516	1136.64429	255.20448	1321.55017	1022.75751	
523	5.220				167.03040	1277.33826	1139.64832	255.40112	1321.19775	1025.26660	
524	5.230	143.69771	1252.99658	1185.14990	166.23357	1278.89905	1144.86267	255.50937	1320.55420	1027.74158	
525	5.240	142.83588	1255.20276	1189.81946	166.21136	1280.34998	1148.09070	255.55833	1319.96790	1030.35681	
526	5.250	142.92776	1257.03174	1193.43152	165.66644	1281.60022	1152.27637	255.19412	1319.77661	1033.38745	
527	5.260	142.36496	1259.14063	1198.57739	165.13283	1283.19849	1156.55774	254.40579	1319.61304	1036.67505	
528	5.270	142.38405	1260.88171	1203.52026	165.04115	1284.33655	1161.53857	253.22169	1319.59705	1040.15771	
529	5.280	141.74214	1262.97241	1209.10779	163.81345	1286.16028	1164.81775	251.65805	1319.66724	1043.96216	
530	5.290	142.22813	1264.42004	1214.17773	162.95409	1287.44727	1171.23975	250.31522	1319.81348	1047.69067	
531	5.300	141.52382	1266.18298	1219.36072	163.43147	1288.17358	1176.36218	248.81583	1319.77173	1050.96082	
532	5.310	141.06201	1267.85583	1224.82715	162.80190	1289.10681	1181.48914	221.80563	1345.71167	1059.32471	
533	5.320	139.79594	1269.78101	1229.87244	160.79895	1291.65710	1184.43579				
534	5.330										
535	5.340										
536	5.350										
537	5.360										
538	5.370										
539	5.380	138.09189	1274.97327	1253.25293	157.14026	1295.46985	1208.23621	211.13272	1348.39124	1082.14844	
540	5.390	137.72612	1274.84082	1255.90881	157.44795	1295.02246	1210.07080	211.13045	1347.35815	1084.66003	
541	5.400	137.30487	1275.17444	1255.98132	157.27046	1294.88220	1212.36243	210.25760	1347.41333	1086.74109	
542	5.410	136.88100	1274.62488	1259.23181	156.68536	1295.02588	1213.49805	209.33594	1347.68896	1087.92139	
543	5.420	138.40816	1273.56384	1260.89246	156.71584	1294.50647	1215.55359	207.55280	1348.45203	1089.62280	
544	5.430	138.53914	1273.39124	1261.98096	156.05716	1295.10059	1214.89075	207.06856	1348.44055	1090.36047	
545	5.440	138.40451	1273.73083	1261.41333	156.75699	1294.07312	1217.53137	206.57405	1348.20227	1090.92664	
546	5.450	138.75110	1273.14746	1263.79895	156.79866	1294.19238	1217.83691	206.50540	1347.62036	1091.15247	
547	5.460	138.01324	1273.94678	1262.30566	157.36197	1293.86060	1218.08057				
548	5.470	137.74918	1273.83862	1262.28918	156.40202	1293.92798	1218.17065				
549	5.480	136.72934	1273.58508	1263.97192	156.61458	1293.39124	1217.69299	208.20804	1345.57703	1090.84863	
550	5.490	136.62381	1273.20776	1263.58044	156.59966	1292.92126	1217.54993	209.51205	1344.04041	1090.67981	
551	5.500	137.10489	1273.04346	1260.72058	156.16304	1292.90955	1215.20581	209.97466	1343.34241	1090.58521	
552	5.510	136.69992	1272.26111	1261.77710	156.74280	1291.85535	1216.05408	209.92674	1343.25427	1089.86255	
553	5.520	136.54514	1272.00684	1261.23267	156.50058	1291.46448	1215.55554	210.76300	1342.30127	1089.02246	
